{
  "accessors": [
    {
      "bufferView": 2,
      "componentType": 5126,
      "count": 5736,
      "max": [
        -53.344512939453125,
        417.32000732421875,
        90.34375
      ],
      "min": [
        -145.89300537109375,
        117.1729736328125,
        -2.2032470703125
      ],
      "type": "VEC3"
    },
    {
      "bufferView": 2,
      "byteOffset": 68832,
      "componentType": 5126,
      "count": 5736,
      "max": [
        1.0,
        0.9999731183052063,
        0.9999710917472839
      ],
      "min": [
        -1.0,
        -0.9999700784683228,
        -0.999971866607666
      ],
      "type": "VEC3"
    },
    {
      "bufferView": 1,
      "componentType": 5126,
      "count": 5736,
      "max": [
        0.9993000030517578,
        1.0003000497817993
      ],
      "min": [
        0.00139999995008111,
        0.0
      ],
      "type": "VEC2"
    },
    {
      "bufferView": 0,
      "componentType": 5125,
      "count": 11472,
      "type": "SCALAR"
    },
    {
      "bufferView": 2,
      "byteOffset": 137664,
      "componentType": 5126,
      "count": 3045,
      "max": [
        344.0379943847656,
        48.02294921875,
        2709.418701171875
      ],
      "min": [
        -205.03701782226563,
        -200.08502197265625,
        942.1779174804688
      ],
      "type": "VEC3"
    },
    {
      "bufferView": 2,
      "byteOffset": 174204,
      "componentType": 5126,
      "count": 3045,
      "max": [
        1.0,
        0.999969482421875,
        0.9999703168869019
      ],
      "min": [
        -1.0,
        -0.9999692440032959,
        -0.999970018863678
      ],
      "type": "VEC3"
    },
    {
      "bufferView": 1,
      "byteOffset": 45888,
      "componentType": 5126,
      "count": 3045,
      "max": [
        1.0,
        0.9995999932289124
      ],
      "min": [
        0.0,
        0.00040000700391829014
      ],
      "type": "VEC2"
    },
    {
      "bufferView": 0,
      "byteOffset": 45888,
      "componentType": 5125,
      "count": 3045,
      "type": "SCALAR"
    },
    {
      "bufferView": 2,
      "byteOffset": 210744,
      "componentType": 5126,
      "count": 10054,
      "max": [
        333.35198974609375,
        117.781005859375,
        944.3203735351563
      ],
      "min": [
        -437.4590148925781,
        -188.02001953125,
        -853.001220703125
      ],
      "type": "VEC3"
    },
    {
      "bufferView": 2,
      "byteOffset": 331392,
      "componentType": 5126,
      "count": 10054,
      "max": [
        1.0,
        1.0,
        1.0
      ],
      "min": [
        -1.0,
        -1.0,
        -1.0
      ],
      "type": "VEC3"
    },
    {
      "bufferView": 1,
      "byteOffset": 70248,
      "componentType": 5126,
      "count": 10054,
      "max": [
        0.9997000098228455,
        1.0
      ],
      "min": [
        0.0003000000142492354,
        0.0
      ],
      "type": "VEC2"
    },
    {
      "bufferView": 0,
      "byteOffset": 58068,
      "componentType": 5125,
      "count": 10056,
      "type": "SCALAR"
    },
    {
      "bufferView": 2,
      "byteOffset": 452040,
      "componentType": 5126,
      "count": 24012,
      "max": [
        354.1849670410156,
        124.19000244140625,
        407.13775634765625
      ],
      "min": [
        -445.884033203125,
        -183.885009765625,
        -866.55126953125
      ],
      "type": "VEC3"
    },
    {
      "bufferView": 2,
      "byteOffset": 740184,
      "componentType": 5126,
      "count": 24012,
      "max": [
        1.0,
        1.0,
        1.0
      ],
      "min": [
        -1.0,
        -1.0,
        -0.9999706149101257
      ],
      "type": "VEC3"
    },
    {
      "bufferView": 1,
      "byteOffset": 150680,
      "componentType": 5126,
      "count": 24012,
      "max": [
        0.9929999709129333,
        0.9950000047683716
      ],
      "min": [
        0.004999999888241291,
        0.004999999888241291
      ],
      "type": "VEC2"
    },
    {
      "bufferView": 0,
      "byteOffset": 98292,
      "componentType": 5125,
      "count": 24018,
      "type": "SCALAR"
    }
  ],
  "asset": {
    "extras": {
      "author": "rosser12345678910 (https://sketchfab.com/rosser12345678910)",
      "license": "CC-BY-4.0 (http://creativecommons.org/licenses/by/4.0/)",
      "source": "https://sketchfab.com/3d-models/chernobyl-nuclear-power-plant-3e08b24bd2d64f1098c3f2c0ecd7a001",
      "title": "Chernobyl Nuclear Power Plant"
    },
    "generator": "Sketchfab-15.83.0",
    "version": "2.0"
  },
  "bufferViews": [
    {
      "buffer": 0,
      "byteLength": 194364,
      "name": "floatBufferViews",
      "target": 34963
    },
    {
      "buffer": 0,
      "byteLength": 342776,
      "byteOffset": 194364,
      "byteStride": 8,
      "name": "floatBufferViews",
      "target": 34962
    },
    {
      "buffer": 0,
      "byteLength": 1028328,
      "byteOffset": 537140,
      "byteStride": 12,
      "name": "floatBufferViews",
      "target": 34962
    }
  ],
  "buffers": [
    {
      "byteLength": 1565468,
      "uri": "scene.bin"
    }
  ],
  "images": [
    {
      "uri": "textures/NppTower1Mtl_baseColor.png"
    },
    {
      "uri": "textures/NppFront1Mtl_baseColor.png"
    },
    {
      "uri": "textures/NppFront21Mtl_baseColor.png"
    },
    {
      "uri": "textures/NppReactors1Mtl_baseColor.png"
    }
  ],
  "materials": [
    {
      "doubleSided": true,
      "name": "NppTower1Mtl",
      "pbrMetallicRoughness": {
        "baseColorTexture": {
          "index": 0
        },
        "metallicFactor": 0.0
      }
    },
    {
      "doubleSided": true,
      "name": "NppFront1Mtl",
      "pbrMetallicRoughness": {
        "baseColorTexture": {
          "index": 1
        },
        "metallicFactor": 0.0
      }
    },
    {
      "doubleSided": true,
      "name": "NppFront21Mtl",
      "pbrMetallicRoughness": {
        "baseColorTexture": {
          "index": 2
        },
        "metallicFactor": 0.0
      }
    },
    {
      "doubleSided": true,
      "name": "NppReactors1Mtl",
      "pbrMetallicRoughness": {
        "baseColorTexture": {
          "index": 3
        },
        "metallicFactor": 0.0
      }
    }
  ],
  "meshes": [
    {
      "name": "4_NppTower1Mtl_0",
      "primitives": [
        {
          "attributes": {
            "NORMAL": 1,
            "POSITION": 0,
            "TEXCOORD_0": 2
          },
          "indices": 3,
          "material": 0,
          "mode": 4
        }
      ]
    },
    {
      "name": "4_NppFront1Mtl_0",
      "primitives": [
        {
          "attributes": {
            "NORMAL": 5,
            "POSITION": 4,
            "TEXCOORD_0": 6
          },
          "indices": 7,
          "material": 1,
          "mode": 4
        }
      ]
    },
    {
      "name": "4_NppFront21Mtl_0",
      "primitives": [
        {
          "attributes": {
            "NORMAL": 9,
            "POSITION": 8,
            "TEXCOORD_0": 10
          },
          "indices": 11,
          "material": 2,
          "mode": 4
        }
      ]
    },
    {
      "name": "4_NppReactors1Mtl_0",
      "primitives": [
        {
          "attributes": {
            "NORMAL": 13,
            "POSITION": 12,
            "TEXCOORD_0": 14
          },
          "indices": 15,
          "material": 3,
          "mode": 4
        }
      ]
    }
  ],
  "nodes": [
    {
      "children": [
        1
      ],
      "matrix": [
        1.0,
        0.0,
        0.0,
        0.0,
        0.0,
        2.220446049250313e-16,
        -1.0,
        0.0,
        0.0,
        1.0,
        2.220446049250313e-16,
        0.0,
        0.0,
        0.0,
        0.0,
        1.0
      ],
      "name": "Sketchfab_model"
    },
    {
      "children": [
        2
      ],
      "matrix": [
        0.009999999776482582,
        0.0,
        0.0,
        0.0,
        0.0,
        0.0,
        0.009999999776482582,
        0.0,
        0.0,
        -0.009999999776482582,
        0.0,
        0.0,
        0.0,
        0.0,
        0.0,
        1.0
      ],
      "name": "c7a3f3cacf164cd8aa1db7582b927f68.fbx"
    },
    {
      "children": [
        3
      ],
      "name": "RootNode"
    },
    {
      "children": [
        4,
        5,
        6,
        7
      ],
      "matrix": [
        16.492832183837827,
        1.4418492363613013e-06,
        -1.9515825789300893e-29,
        -0.0,
        -1.4418492363612972e-06,
        16.49283218383778,
        -1.2451742157798282e-06,
        -0.0,
        1.0885659128444169e-13,
        -1.2451742157798233e-06,
        -16.492832183837844,
        -0.0,
        0.0,
        0.0,
        0.0,
        1.0
      ],
      "name": "4"
    },
    {
      "mesh": 0,
      "name": "4_NppTower1Mtl_0"
    },
    {
      "mesh": 1,
      "name": "4_NppFront1Mtl_0"
    },
    {
      "mesh": 2,
      "name": "4_NppFront21Mtl_0"
    },
    {
      "mesh": 3,
      "name": "4_NppReactors1Mtl_0"
    }
  ],
  "samplers": [
    {
      "magFilter": 9729,
      "minFilter": 9987,
      "wrapS": 10497,
      "wrapT": 10497
    }
  ],
  "scene": 0,
  "scenes": [
    {
      "name": "Sketchfab_Scene",
      "nodes": [
        0
      ]
    }
  ],
  "textures": [
    {
      "sampler": 0,
      "source": 0
    },
    {
      "sampler": 0,
      "source": 1
    },
    {
      "sampler": 0,
      "source": 2
    },
    {
      "sampler": 0,
      "source": 3
    }
  ]
}
