{
  "accessors": [
    {
      "bufferView": 2,
      "componentType": 5126,
      "count": 2010,
      "max": [
        2.845649480819702,
        7.24656343460083,
        3.4289357662200928
      ],
      "min": [
        -4.009578227996826,
        1.0886967182159424,
        -3.864731550216675
      ],
      "type": "VEC3"
    },
    {
      "bufferView": 2,
      "byteOffset": 24120,
      "componentType": 5126,
      "count": 2010,
      "max": [
        0.9961966872215271,
        0.9991949796676636,
        0.9921520352363586
      ],
      "min": [
        -0.9507552981376648,
        -0.5726426839828491,
        -0.9965599179267883
      ],
      "type": "VEC3"
    },
    {
      "bufferView": 1,
      "componentType": 5126,
      "count": 2010,
      "max": [
        0.6000000238418579,
        1.0
      ],
      "min": [
        0.4000000059604645,
        0.0
      ],
      "type": "VEC2"
    },
    {
      "bufferView": 0,
      "componentType": 5125,
      "count": 3084,
      "type": "SCALAR"
    },
    {
      "bufferView": 2,
      "byteOffset": 48240,
      "componentType": 5126,
      "count": 15855,
      "max": [
        2.7301385402679443,
        7.076289653778076,
        3.2598929405212402
      ],
      "min": [
        -3.674037218093872,
        0.0,
        -3.512249708175659
      ],
      "type": "VEC3"
    },
    {
      "bufferView": 2,
      "byteOffset": 238500,
      "componentType": 5126,
      "count": 15855,
      "max": [
        0.9999629259109497,
        0.9910433888435364,
        0.9999990463256836
      ],
      "min": [
        -0.9998488426208496,
        -0.9892546534538269,
        -0.999854564666748
      ],
      "type": "VEC3"
    },
    {
      "bufferView": 1,
      "byteOffset": 16080,
      "componentType": 5126,
      "count": 15855,
      "max": [
        1.0,
        1.0
      ],
      "min": [
        0.0,
        0.0
      ],
      "type": "VEC2"
    },
    {
      "bufferView": 0,
      "byteOffset": 12336,
      "componentType": 5125,
      "count": 76032,
      "type": "SCALAR"
    },
    {
      "bufferView": 2,
      "byteOffset": 428760,
      "componentType": 5126,
      "count": 230,
      "max": [
        5.114235877990723,
        1.0,
        5.999999523162842
      ],
      "min": [
        -1.0,
        -8.673462867736816,
        -4.999999523162842
      ],
      "type": "VEC3"
    },
    {
      "bufferView": 2,
      "byteOffset": 431520,
      "componentType": 5126,
      "count": 230,
      "max": [
        0.0,
        1.0,
        -0.0
      ],
      "min": [
        0.0,
        1.0,
        -0.0
      ],
      "type": "VEC3"
    },
    {
      "bufferView": 1,
      "byteOffset": 142920,
      "componentType": 5126,
      "count": 230,
      "max": [
        0.9997532963752747,
        0.7393215298652649
      ],
      "min": [
        0.0002466853766236454,
        0.0002466853766236454
      ],
      "type": "VEC2"
    },
    {
      "bufferView": 0,
      "byteOffset": 316464,
      "componentType": 5125,
      "count": 708,
      "type": "SCALAR"
    },
    {
      "bufferView": 2,
      "byteOffset": 434280,
      "componentType": 5126,
      "count": 8,
      "max": [
        1.0,
        1.0,
        5.999999523162842
      ],
      "min": [
        1.0,
        -1.0,
        -4.999999523162842
      ],
      "type": "VEC3"
    },
    {
      "bufferView": 2,
      "byteOffset": 434376,
      "componentType": 5126,
      "count": 8,
      "max": [
        0.0,
        1.0,
        -0.0
      ],
      "min": [
        0.0,
        1.0,
        -0.0
      ],
      "type": "VEC3"
    },
    {
      "bufferView": 1,
      "byteOffset": 144760,
      "componentType": 5126,
      "count": 8,
      "max": [
        0.6351631283760071,
        0.26232102513313293
      ],
      "min": [
        0.0738847404718399,
        0.03290734067559242
      ],
      "type": "VEC2"
    },
    {
      "bufferView": 0,
      "byteOffset": 319296,
      "componentType": 5125,
      "count": 12,
      "type": "SCALAR"
    },
    {
      "bufferView": 2,
      "byteOffset": 434472,
      "componentType": 5126,
      "count": 1013,
      "max": [
        5.59116792678833,
        0.8894727826118469,
        6.055757522583008
      ],
      "min": [
        -5.481571197509766,
        -0.2813003361225128,
        -5.4303693771362305
      ],
      "type": "VEC3"
    },
    {
      "bufferView": 2,
      "byteOffset": 446628,
      "componentType": 5126,
      "count": 1013,
      "max": [
        0.5337480306625366,
        1.0,
        0.24433653056621552
      ],
      "min": [
        -0.3347253203392029,
        0.8420951962471008,
        -0.28002768754959106
      ],
      "type": "VEC3"
    },
    {
      "bufferView": 1,
      "byteOffset": 144824,
      "componentType": 5126,
      "count": 1013,
      "max": [
        1.0,
        1.0
      ],
      "min": [
        0.0,
        0.0
      ],
      "type": "VEC2"
    },
    {
      "bufferView": 0,
      "byteOffset": 319344,
      "componentType": 5125,
      "count": 1536,
      "type": "SCALAR"
    },
    {
      "bufferView": 2,
      "byteOffset": 458784,
      "componentType": 5126,
      "count": 609,
      "max": [
        1.00223970413208,
        1.6797770261764526,
        0.9789862632751465
      ],
      "min": [
        -1.00223970413208,
        -1.648104190826416,
        -1.0169422626495361
      ],
      "type": "VEC3"
    },
    {
      "bufferView": 2,
      "byteOffset": 466092,
      "componentType": 5126,
      "count": 609,
      "max": [
        0.0,
        1.0,
        -0.0
      ],
      "min": [
        0.0,
        1.0,
        -0.0
      ],
      "type": "VEC3"
    },
    {
      "bufferView": 1,
      "byteOffset": 152928,
      "componentType": 5126,
      "count": 609,
      "max": [
        0.9931578636169434,
        0.9996125102043152
      ],
      "min": [
        0.0003875542024616152,
        0.0003875542024616152
      ],
      "type": "VEC2"
    },
    {
      "bufferView": 0,
      "byteOffset": 325488,
      "componentType": 5125,
      "count": 2106,
      "type": "SCALAR"
    },
    {
      "bufferView": 2,
      "byteOffset": 473400,
      "componentType": 5126,
      "count": 102,
      "max": [
        0.19108980894088745,
        1.6489357948303223,
        0.7195568680763245
      ],
      "min": [
        -0.17014840245246887,
        1.5951921939849854,
        -0.7761870622634888
      ],
      "type": "VEC3"
    },
    {
      "bufferView": 2,
      "byteOffset": 474624,
      "componentType": 5126,
      "count": 102,
      "max": [
        0.0,
        1.0,
        -0.0
      ],
      "min": [
        0.0,
        1.0,
        -0.0
      ],
      "type": "VEC3"
    },
    {
      "bufferView": 1,
      "byteOffset": 157800,
      "componentType": 5126,
      "count": 102,
      "max": [
        0.44165006279945374,
        0.6439340710639954
      ],
      "min": [
        0.16667935252189636,
        0.5773178339004517
      ],
      "type": "VEC2"
    },
    {
      "bufferView": 0,
      "byteOffset": 333912,
      "componentType": 5125,
      "count": 306,
      "type": "SCALAR"
    },
    {
      "bufferView": 2,
      "byteOffset": 475848,
      "componentType": 5126,
      "count": 609,
      "max": [
        1.00223970413208,
        1.6797770261764526,
        0.9789862632751465
      ],
      "min": [
        -1.00223970413208,
        -1.648104190826416,
        -1.0169422626495361
      ],
      "type": "VEC3"
    },
    {
      "bufferView": 2,
      "byteOffset": 483156,
      "componentType": 5126,
      "count": 609,
      "max": [
        0.0,
        1.0,
        -0.0
      ],
      "min": [
        0.0,
        1.0,
        -0.0
      ],
      "type": "VEC3"
    },
    {
      "bufferView": 1,
      "byteOffset": 158616,
      "componentType": 5126,
      "count": 609,
      "max": [
        0.9931578636169434,
        0.9996125102043152
      ],
      "min": [
        0.0003875542024616152,
        0.0003875542024616152
      ],
      "type": "VEC2"
    },
    {
      "bufferView": 0,
      "byteOffset": 335136,
      "componentType": 5125,
      "count": 2106,
      "type": "SCALAR"
    },
    {
      "bufferView": 2,
      "byteOffset": 490464,
      "componentType": 5126,
      "count": 102,
      "max": [
        0.19108980894088745,
        1.6489357948303223,
        0.7195568680763245
      ],
      "min": [
        -0.17014840245246887,
        1.5951921939849854,
        -0.7761870622634888
      ],
      "type": "VEC3"
    },
    {
      "bufferView": 2,
      "byteOffset": 491688,
      "componentType": 5126,
      "count": 102,
      "max": [
        0.0,
        1.0,
        -0.0
      ],
      "min": [
        0.0,
        1.0,
        -0.0
      ],
      "type": "VEC3"
    },
    {
      "bufferView": 1,
      "byteOffset": 163488,
      "componentType": 5126,
      "count": 102,
      "max": [
        0.44165006279945374,
        0.6439340710639954
      ],
      "min": [
        0.16667935252189636,
        0.5773178339004517
      ],
      "type": "VEC2"
    },
    {
      "bufferView": 0,
      "byteOffset": 343560,
      "componentType": 5125,
      "count": 306,
      "type": "SCALAR"
    },
    {
      "bufferView": 2,
      "byteOffset": 492912,
      "componentType": 5126,
      "count": 609,
      "max": [
        1.00223970413208,
        1.6797770261764526,
        0.9789862632751465
      ],
      "min": [
        -1.00223970413208,
        -1.648104190826416,
        -1.0169422626495361
      ],
      "type": "VEC3"
    },
    {
      "bufferView": 2,
      "byteOffset": 500220,
      "componentType": 5126,
      "count": 609,
      "max": [
        0.0,
        1.0,
        -0.0
      ],
      "min": [
        0.0,
        1.0,
        -0.0
      ],
      "type": "VEC3"
    },
    {
      "bufferView": 1,
      "byteOffset": 164304,
      "componentType": 5126,
      "count": 609,
      "max": [
        0.9931578636169434,
        0.9996125102043152
      ],
      "min": [
        0.0003875542024616152,
        0.0003875542024616152
      ],
      "type": "VEC2"
    },
    {
      "bufferView": 0,
      "byteOffset": 344784,
      "componentType": 5125,
      "count": 2106,
      "type": "SCALAR"
    },
    {
      "bufferView": 2,
      "byteOffset": 507528,
      "componentType": 5126,
      "count": 102,
      "max": [
        0.19108980894088745,
        1.6489357948303223,
        0.7195568680763245
      ],
      "min": [
        -0.17014840245246887,
        1.5951921939849854,
        -0.7761870622634888
      ],
      "type": "VEC3"
    },
    {
      "bufferView": 2,
      "byteOffset": 508752,
      "componentType": 5126,
      "count": 102,
      "max": [
        0.0,
        1.0,
        -0.0
      ],
      "min": [
        0.0,
        1.0,
        -0.0
      ],
      "type": "VEC3"
    },
    {
      "bufferView": 1,
      "byteOffset": 169176,
      "componentType": 5126,
      "count": 102,
      "max": [
        0.44165006279945374,
        0.6439340710639954
      ],
      "min": [
        0.16667935252189636,
        0.5773178339004517
      ],
      "type": "VEC2"
    },
    {
      "bufferView": 0,
      "byteOffset": 353208,
      "componentType": 5125,
      "count": 306,
      "type": "SCALAR"
    }
  ],
  "asset": {
    "extras": {
      "author": "victory_mirosya (https://sketchfab.com/victory_mirosya)",
      "license": "CC-BY-4.0 (http://creativecommons.org/licenses/by/4.0/)",
      "source": "https://sketchfab.com/3d-models/chernobyl-radiation-bfae0e7e6b614cb086fccfdefa4a5164",
      "title": "чернобыль Chernobyl radiation"
    },
    "generator": "Sketchfab-13.42.0",
    "version": "2.0"
  },
  "bufferViews": [
    {
      "buffer": 0,
      "byteLength": 354432,
      "name": "floatBufferViews",
      "target": 34963
    },
    {
      "buffer": 0,
      "byteLength": 169992,
      "byteOffset": 354432,
      "byteStride": 8,
      "name": "floatBufferViews",
      "target": 34962
    },
    {
      "buffer": 0,
      "byteLength": 509976,
      "byteOffset": 524424,
      "byteStride": 12,
      "name": "floatBufferViews",
      "target": 34962
    }
  ],
  "buffers": [
    {
      "byteLength": 1034400,
      "uri": "gltf.bin"
    }
  ],
  "extensionsUsed": [
    "KHR_materials_unlit"
  ],
  "images": [
    {
      "uri": "textures/Material.008_baseColor.png"
    },
    {
      "uri": "textures/Material.007_baseColor.jpeg"
    },
    {
      "uri": "textures/Material.003_baseColor.png"
    },
    {
      "uri": "textures/Material.005_baseColor.png"
    },
    {
      "uri": "textures/Material.001_baseColor.png"
    }
  ],
  "materials": [
    {
      "doubleSided": true,
      "extensions": {
        "KHR_materials_unlit": {}
      },
      "name": "Material.008",
      "pbrMetallicRoughness": {
        "baseColorTexture": {
          "index": 0
        },
        "metallicFactor": 0.0
      }
    },
    {
      "doubleSided": true,
      "extensions": {
        "KHR_materials_unlit": {}
      },
      "name": "Material.007",
      "pbrMetallicRoughness": {
        "baseColorTexture": {
          "index": 1
        },
        "metallicFactor": 0.0
      }
    },
    {
      "doubleSided": true,
      "extensions": {
        "KHR_materials_unlit": {}
      },
      "name": "Material.003",
      "pbrMetallicRoughness": {
        "baseColorTexture": {
          "index": 2
        },
        "metallicFactor": 0.0
      }
    },
    {
      "doubleSided": true,
      "extensions": {
        "KHR_materials_unlit": {}
      },
      "name": "Material.004",
      "pbrMetallicRoughness": {
        "baseColorFactor": [
          0.00695776,
          0.00719345,
          0.00719345,
          1.0
        ],
        "metallicFactor": 0.0
      }
    },
    {
      "doubleSided": true,
      "extensions": {
        "KHR_materials_unlit": {}
      },
      "name": "Material.006",
      "pbrMetallicRoughness": {
        "baseColorTexture": {
          "index": 1
        },
        "metallicFactor": 0.0
      }
    },
    {
      "doubleSided": true,
      "extensions": {
        "KHR_materials_unlit": {}
      },
      "name": "Material.005",
      "pbrMetallicRoughness": {
        "baseColorTexture": {
          "index": 3
        },
        "metallicFactor": 0.0
      }
    },
    {
      "doubleSided": true,
      "extensions": {
        "KHR_materials_unlit": {}
      },
      "name": "Material.002",
      "pbrMetallicRoughness": {
        "baseColorFactor": [
          0.0310629,
          0.017117,
          0.00931474,
          1.0
        ],
        "metallicFactor": 0.0
      }
    },
    {
      "doubleSided": true,
      "extensions": {
        "KHR_materials_unlit": {}
      },
      "name": "Material.001",
      "pbrMetallicRoughness": {
        "baseColorTexture": {
          "index": 4
        },
        "metallicFactor": 0.0
      }
    }
  ],
  "meshes": [
    {
      "name": "Object_0",
      "primitives": [
        {
          "attributes": {
            "NORMAL": 1,
            "POSITION": 0,
            "TEXCOORD_0": 2
          },
          "indices": 3,
          "material": 0,
          "mode": 4
        }
      ]
    },
    {
      "name": "Object_1",
      "primitives": [
        {
          "attributes": {
            "NORMAL": 5,
            "POSITION": 4,
            "TEXCOORD_0": 6
          },
          "indices": 7,
          "material": 1,
          "mode": 4
        }
      ]
    },
    {
      "name": "Object_2",
      "primitives": [
        {
          "attributes": {
            "NORMAL": 9,
            "POSITION": 8,
            "TEXCOORD_0": 10
          },
          "indices": 11,
          "material": 2,
          "mode": 4
        }
      ]
    },
    {
      "name": "Object_3",
      "primitives": [
        {
          "attributes": {
            "NORMAL": 13,
            "POSITION": 12,
            "TEXCOORD_0": 14
          },
          "indices": 15,
          "material": 3,
          "mode": 4
        }
      ]
    },
    {
      "name": "Object_4",
      "primitives": [
        {
          "attributes": {
            "NORMAL": 17,
            "POSITION": 16,
            "TEXCOORD_0": 18
          },
          "indices": 19,
          "material": 4,
          "mode": 4
        }
      ]
    },
    {
      "name": "Object_5",
      "primitives": [
        {
          "attributes": {
            "NORMAL": 21,
            "POSITION": 20,
            "TEXCOORD_0": 22
          },
          "indices": 23,
          "material": 5,
          "mode": 4
        }
      ]
    },
    {
      "name": "Object_6",
      "primitives": [
        {
          "attributes": {
            "NORMAL": 25,
            "POSITION": 24,
            "TEXCOORD_0": 26
          },
          "indices": 27,
          "material": 6,
          "mode": 4
        }
      ]
    },
    {
      "name": "Object_7",
      "primitives": [
        {
          "attributes": {
            "NORMAL": 29,
            "POSITION": 28,
            "TEXCOORD_0": 30
          },
          "indices": 31,
          "material": 7,
          "mode": 4
        }
      ]
    },
    {
      "name": "Object_8",
      "primitives": [
        {
          "attributes": {
            "NORMAL": 33,
            "POSITION": 32,
            "TEXCOORD_0": 34
          },
          "indices": 35,
          "material": 6,
          "mode": 4
        }
      ]
    },
    {
      "name": "Object_9",
      "primitives": [
        {
          "attributes": {
            "NORMAL": 37,
            "POSITION": 36,
            "TEXCOORD_0": 38
          },
          "indices": 39,
          "material": 7,
          "mode": 4
        }
      ]
    },
    {
      "name": "Object_10",
      "primitives": [
        {
          "attributes": {
            "NORMAL": 41,
            "POSITION": 40,
            "TEXCOORD_0": 42
          },
          "indices": 43,
          "material": 6,
          "mode": 4
        }
      ]
    }
  ],
  "nodes": [
    {
      "children": [
        1
      ],
      "matrix": [
        1.0,
        0.0,
        0.0,
        0.0,
        0.0,
        2.220446049250313e-16,
        -1.0,
        0.0,
        0.0,
        1.0,
        2.220446049250313e-16,
        0.0,
        0.0,
        0.0,
        0.0,
        1.0
      ],
      "name": "Sketchfab_model"
    },
    {
      "children": [
        2
      ],
      "name": "root"
    },
    {
      "children": [
        3,
        6,
        8,
        11,
        13,
        16,
        19
      ],
      "matrix": [
        1.0,
        0.0,
        0.0,
        0.0,
        0.0,
        2.220446049250313e-16,
        1.0,
        0.0,
        0.0,
        -1.0,
        2.220446049250313e-16,
        0.0,
        0.0,
        0.0,
        0.0,
        1.0
      ],
      "name": "GLTF_SceneRootNode"
    },
    {
      "children": [
        4
      ],
      "matrix": [
        1.4809879064559937,
        0.0,
        0.0,
        0.0,
        0.0,
        1.4809879064559937,
        0.0,
        0.0,
        0.0,
        0.0,
        1.4809879064559937,
        0.0,
        0.9781821966171265,
        -1.7594599723815918,
        -4.3922295570373535,
        1.0
      ],
      "name": "tree_2"
    },
    {
      "children": [
        5
      ],
      "name": "leaves_0"
    },
    {
      "mesh": 0,
      "name": "Object_5"
    },
    {
      "children": [
        7
      ],
      "matrix": [
        1.4809879064559937,
        0.0,
        0.0,
        0.0,
        0.0,
        1.4809879064559937,
        0.0,
        0.0,
        0.0,
        0.0,
        1.4809879064559937,
        0.0,
        0.9781821966171265,
        -1.7594599723815918,
        -4.3922295570373535,
        1.0
      ],
      "name": "tree.001_3"
    },
    {
      "mesh": 1,
      "name": "Object_7"
    },
    {
      "children": [
        9,
        10
      ],
      "matrix": [
        0.08219531009619876,
        -2.1839063015641268e-05,
        0.024767602982891605,
        0.0,
        -0.007765122915805291,
        0.9996146328806128,
        0.026651240066085994,
        0.0,
        -0.288408246030982,
        -0.02775826025277234,
        0.9571050948610983,
        0.0,
        2.4410202503204346,
        7.285326957702637,
        0.5382335186004639,
        1.0
      ],
      "name": "Cube_4"
    },
    {
      "mesh": 2,
      "name": "Object_9"
    },
    {
      "mesh": 3,
      "name": "Object_10"
    },
    {
      "children": [
        12
      ],
      "matrix": [
        1.0,
        0.0,
        0.0,
        0.0,
        0.0,
        1.0,
        0.0,
        0.0,
        0.0,
        0.0,
        1.0,
        0.0,
        0.25608745217323303,
        -1.7204058170318604,
        -0.5748833417892456,
        1.0
      ],
      "name": "Plane_5"
    },
    {
      "mesh": 4,
      "name": "Object_12"
    },
    {
      "children": [
        14,
        15
      ],
      "name": "Cylinder_6"
    },
    {
      "mesh": 5,
      "name": "Object_14"
    },
    {
      "mesh": 6,
      "name": "Object_15"
    },
    {
      "children": [
        17,
        18
      ],
      "matrix": [
        0.6465588019678329,
        0.0,
        0.762864152780769,
        0.0,
        0.0,
        1.0,
        0.0,
        0.0,
        -0.762864152780769,
        0.0,
        0.6465588019678329,
        0.0,
        1.3845187425613403,
        0.01533497218042612,
        -1.7824652194976807,
        1.0
      ],
      "name": "Cylinder.001_7"
    },
    {
      "mesh": 7,
      "name": "Object_17"
    },
    {
      "mesh": 8,
      "name": "Object_18"
    },
    {
      "children": [
        20,
        21
      ],
      "matrix": [
        0.613925337246107,
        -0.006011508923941589,
        0.7893412076204505,
        0.0,
        -0.789277618674729,
        0.010126715543182785,
        0.6139530033247305,
        0.0,
        -0.011684217834452115,
        -0.9999306532918995,
        0.0014722978069133807,
        0.0,
        0.8759180307388306,
        -0.6821396946907043,
        2.1708195209503174,
        1.0
      ],
      "name": "Cylinder.002_8"
    },
    {
      "mesh": 9,
      "name": "Object_20"
    },
    {
      "mesh": 10,
      "name": "Object_21"
    }
  ],
  "samplers": [
    {
      "magFilter": 9729,
      "minFilter": 9987,
      "wrapS": 10497,
      "wrapT": 10497
    }
  ],
  "scene": 0,
  "scenes": [
    {
      "name": "Sketchfab_Scene",
      "nodes": [
        0
      ]
    }
  ],
  "textures": [
    {
      "sampler": 0,
      "source": 0
    },
    {
      "sampler": 0,
      "source": 1
    },
    {
      "sampler": 0,
      "source": 2
    },
    {
      "sampler": 0,
      "source": 3
    },
    {
      "sampler": 0,
      "source": 4
    }
  ]
}
